<svg width="18" height="18" viewBox="0 0 18 18" fill="none" xmlns="http://www.w3.org/2000/svg">
<path fill-rule="evenodd" clip-rule="evenodd" d="M8.9996 14.85C8.62681 14.85 8.32461 14.5478 8.32461 14.175L8.32461 5.45452L5.87697 7.90241C5.61338 8.16602 5.186 8.16604 4.92239 7.90246C4.65878 7.63887 4.65876 7.21149 4.92234 6.94788L8.52228 3.34757C8.64887 3.22097 8.82057 3.14985 8.9996 3.14985C9.17863 3.14985 9.35032 3.22097 9.47691 3.34757L13.0769 6.94788C13.3404 7.21149 13.3404 7.63887 13.0768 7.90246C12.8132 8.16604 12.3858 8.16602 12.1222 7.90241L9.67459 5.45452L9.67459 14.175C9.67459 14.5478 9.37239 14.85 8.9996 14.85Z" fill="#32A06E"/>
</svg>
