<svg width="18" height="18" viewBox="0 0 18 18" fill="none" xmlns="http://www.w3.org/2000/svg">
<path d="M14.625 10.6875V8.71875C14.625 8.04742 14.3583 7.40359 13.8836 6.92889C13.4089 6.45418 12.7651 6.1875 12.0938 6.1875H10.9688C10.745 6.1875 10.5304 6.09861 10.3721 5.94037C10.2139 5.78214 10.125 5.56753 10.125 5.34375V4.21875C10.125 3.54742 9.85832 2.90359 9.38361 2.42889C8.90891 1.95418 8.26508 1.6875 7.59375 1.6875H6.1875M7.875 8.4375H10.6875M7.3125 10.4062H10.6875M9 14.0625L7.3125 12.375H7.59375C8.11589 12.375 8.61665 12.1676 8.98587 11.7984C9.35508 11.4292 9.5625 10.9284 9.5625 10.4062C9.5625 9.88411 9.35508 9.38335 8.98587 9.01413C8.61665 8.64492 8.11589 8.4375 7.59375 8.4375H7.3125M7.875 1.6875H4.21875C3.753 1.6875 3.375 2.0655 3.375 2.53125V15.4688C3.375 15.9345 3.753 16.3125 4.21875 16.3125H13.7812C14.247 16.3125 14.625 15.9345 14.625 15.4688V8.4375C14.625 6.64729 13.9138 4.9304 12.648 3.66453C11.3821 2.39866 9.66521 1.6875 7.875 1.6875Z" stroke="#949494" stroke-width="1.125" stroke-linecap="round" stroke-linejoin="round"/>
</svg>
