<svg width="18" height="18" viewBox="0 0 18 18" fill="none" xmlns="http://www.w3.org/2000/svg">
<path d="M6.831 8.81841L8.544 7.10091L7.00425 5.55591L6.135 6.42441L5.604 5.89341L6.46875 5.02491L5.00475 3.56091L3.28725 5.27841L6.831 8.81841ZM12.7065 14.6984L14.424 12.9809L12.9608 11.5169L12.0922 12.3809L11.562 11.8499L12.4252 10.9814L10.8953 9.45591L9.1815 11.1689L12.7065 14.6984ZM11.649 5.06391L12.945 6.35916L14.2545 5.04966L12.9548 3.74991L11.649 5.06391ZM5.36625 14.9999H3V12.6344L6.2955 9.33891L2.25 5.27916L5.00475 2.52441L9.084 6.58866L12.4342 3.23391C12.5168 3.15091 12.6038 3.09116 12.6952 3.05466C12.7867 3.01816 12.8842 2.99991 12.9877 2.99991C13.0912 2.99991 13.1888 3.01816 13.2803 3.05466C13.3718 3.09116 13.459 3.15091 13.542 3.23391L14.766 4.50591C14.849 4.58841 14.9065 4.67541 14.9385 4.76691C14.9705 4.85841 14.9863 4.95591 14.9858 5.05941C14.9853 5.16291 14.9692 5.25741 14.9377 5.34291C14.9062 5.42841 14.8492 5.51241 14.7667 5.59491L11.4443 8.93541L15.4762 12.9952L12.72 15.7499L8.66025 11.7044L5.36625 14.9999Z" fill="#949494"/>
</svg>
