<svg width="20" height="20" viewBox="0 0 20 20" fill="none" xmlns="http://www.w3.org/2000/svg">
<path fill-rule="evenodd" clip-rule="evenodd" d="M10.0206 10.9999L9.04345 10.2964C8.63867 10.0057 8.54782 9.4424 8.83854 9.03863C9.12925 8.63385 9.69251 8.54199 10.0963 8.83372L11.0734 9.53729C11.4782 9.828 11.57 10.3913 11.2783 10.795C10.9876 11.1988 10.4243 11.2907 10.0206 10.9999ZM13.7067 11.4335L14.1953 11.7858L16.9076 8.01866C17.166 7.6593 17.0853 7.15762 16.7249 6.89921L15.5883 6.07956C15.3218 5.88877 14.9534 5.85344 14.6879 6.04524C14.1529 6.43184 13.41 6.45304 12.8457 6.04624C12.2814 5.63945 12.0654 4.9278 12.2622 4.29893C12.3602 3.98601 12.2098 3.64786 11.9443 3.45607L10.8067 2.63742C10.4473 2.378 9.94562 2.45977 9.6862 2.81912L6.97489 6.58629L7.46345 6.93857C7.86722 7.22929 7.95908 7.79255 7.66837 8.19632C7.37765 8.60008 6.81439 8.69194 6.40962 8.40123L5.92105 8.04894L3.08962 11.9806C2.83121 12.341 2.91197 12.8417 3.27233 13.1011L4.40894 13.9197C4.67543 14.1115 5.04387 14.1469 5.30934 13.9551C5.84434 13.5685 6.58727 13.5473 7.15154 13.9541C7.71581 14.3609 7.93183 15.0715 7.73499 15.7014C7.63707 16.0133 7.78748 16.3525 8.05296 16.5442L9.19058 17.3629C9.54993 17.6213 10.0516 17.5405 10.311 17.1802L13.1415 13.2485L12.6529 12.8962C12.2491 12.6055 12.1573 12.0422 12.448 11.6384C12.7387 11.2347 13.302 11.1428 13.7067 11.4335Z" fill="#FEFEFE"/>
</svg>
