<svg width="44" height="44" viewBox="0 0 44 44" fill="none" xmlns="http://www.w3.org/2000/svg">
<path d="M41.2504 27.4999C41.2484 23.8255 40.1835 20.2302 38.1841 17.1475L36.1986 19.1343C37.7047 21.6649 38.4999 24.555 38.5004 27.4999H41.2504ZM38.5004 12.9441L36.5561 10.9998L24.7765 22.7795C23.9382 22.2742 22.979 22.0048 22.0003 21.9999C20.9125 21.9999 19.8492 22.3224 18.9447 22.9268C18.0402 23.5311 17.3353 24.3901 16.919 25.3951C16.5027 26.4001 16.3938 27.506 16.606 28.5729C16.8182 29.6398 17.342 30.6198 18.1112 31.389C18.8804 32.1582 19.8604 32.682 20.9273 32.8942C21.9942 33.1064 23.1001 32.9975 24.1051 32.5812C25.1101 32.1649 25.9691 31.46 26.5734 30.5555C27.1778 29.651 27.5003 28.5877 27.5003 27.4999C27.4956 26.5207 27.2262 25.561 26.7207 24.7224L38.5004 12.9441ZM22.0003 30.2499C21.4564 30.2499 20.9247 30.0886 20.4725 29.7864C20.0203 29.4842 19.6678 29.0548 19.4597 28.5523C19.2515 28.0498 19.1971 27.4968 19.3032 26.9634C19.4093 26.4299 19.6712 25.9399 20.0558 25.5553C20.4404 25.1707 20.9304 24.9088 21.4638 24.8027C21.9973 24.6966 22.5502 24.7511 23.0527 24.9592C23.5552 25.1673 23.9847 25.5198 24.2869 25.972C24.5891 26.4243 24.7503 26.956 24.7503 27.4999C24.7503 28.2292 24.4606 28.9287 23.9449 29.4444C23.4292 29.9601 22.7297 30.2499 22.0003 30.2499ZM22.0003 10.9998C24.9447 11.0006 27.8343 11.7958 30.3645 13.3016L32.3637 11.3037C29.4584 9.4353 26.1031 8.38451 22.651 8.26187C19.1989 8.13924 15.7775 8.94929 12.7469 10.6068C9.71622 12.2643 7.18834 14.708 5.42917 17.6808C3.67 20.6536 2.74458 24.0456 2.75027 27.4999H5.50028C5.50537 23.1253 7.2454 18.9315 10.3387 15.8382C13.4319 12.7449 17.6258 11.0049 22.0003 10.9998Z" fill="#FF1D45"/>
</svg>
