<svg width="18" height="18" viewBox="0 0 18 18" fill="none" xmlns="http://www.w3.org/2000/svg">
<g clip-path="url(#clip0_1_3709)">
<path d="M12.8689 5.13277C12.5764 4.8402 12.4052 4.44801 12.3894 4.03464C12.3736 3.62126 12.5145 3.21716 12.7838 2.90316C12.8061 2.87704 12.8177 2.84347 12.8162 2.80918C12.8148 2.77488 12.8005 2.7424 12.7761 2.71824L11.2246 1.16503C11.199 1.1394 11.1642 1.125 11.128 1.125C11.0917 1.125 11.0569 1.1394 11.0313 1.16503L8.55839 3.63792C8.46713 3.72912 8.3984 3.84035 8.35765 3.96277C8.31703 4.08546 8.24838 4.19699 8.15715 4.28853C8.06592 4.38006 7.95462 4.44908 7.83206 4.49011C7.70958 4.53093 7.59825 4.59965 7.50687 4.69085L1.16503 11.0313C1.1394 11.0569 1.125 11.0917 1.125 11.128C1.125 11.1642 1.1394 11.199 1.16503 11.2246L2.71648 12.7761C2.74064 12.8005 2.77313 12.8148 2.80742 12.8162C2.84172 12.8177 2.87528 12.8061 2.9014 12.7838C3.21533 12.5142 3.61952 12.3731 4.03304 12.3888C4.44656 12.4045 4.8389 12.5758 5.13152 12.8684C5.42413 13.161 5.59543 13.5533 5.61111 13.9669C5.62679 14.3804 5.4857 14.7846 5.21609 15.0985C5.19381 15.1246 5.18223 15.1582 5.18367 15.1925C5.1851 15.2268 5.19944 15.2593 5.22382 15.2834L6.77527 16.8349C6.80091 16.8605 6.83569 16.8749 6.87195 16.8749C6.90821 16.8749 6.94298 16.8605 6.96863 16.8349L13.3108 10.493C13.402 10.4017 13.4707 10.2903 13.5116 10.1678C13.5522 10.0452 13.6208 9.93362 13.7121 9.84208C13.8033 9.75055 13.9146 9.68153 14.0371 9.6405C14.1596 9.59976 14.2708 9.53102 14.362 9.43976L16.8349 6.96687C16.8605 6.94122 16.8749 6.90645 16.8749 6.87019C16.8749 6.83393 16.8605 6.79915 16.8349 6.77351L15.2834 5.22206C15.2593 5.19769 15.2268 5.18334 15.1925 5.18191C15.1582 5.18047 15.1246 5.19205 15.0985 5.21433C14.7849 5.48411 14.3811 5.62558 13.9677 5.61046C13.5543 5.59534 13.1619 5.42474 12.8689 5.13277Z" stroke="#949494" stroke-width="1.125" stroke-miterlimit="10"/>
<path d="M8.80699 4.93688L8.22656 4.35645M10.3546 6.48445L9.9675 6.09773M11.9021 8.03238L11.5154 7.64531M13.6434 9.77332L13.063 9.19289" stroke="#949494" stroke-width="1.125" stroke-miterlimit="10" stroke-linecap="round"/>
</g>
<defs>
<clipPath id="clip0_1_3709">
<rect width="18" height="18" fill="white"/>
</clipPath>
</defs>
</svg>
