<svg width="40" height="40" viewBox="0 0 40 40" fill="none" xmlns="http://www.w3.org/2000/svg">
<path opacity="0.5" d="M9.99951 15.0002H16.6661" stroke="#00FF39" stroke-width="2.48741" stroke-linecap="round" stroke-linejoin="round"/>
<path d="M34.7214 16.6678H30.3847C27.4097 16.6678 24.9998 18.9061 24.9998 21.6678C24.9998 24.4294 27.4114 26.6678 30.3831 26.6678H34.7214C34.8614 26.6678 34.9297 26.6678 34.988 26.6644C35.888 26.6094 36.6047 25.9444 36.663 25.1094C36.6663 25.0561 36.6664 24.9911 36.6664 24.8628V18.4728C36.6664 18.3445 36.6663 18.2795 36.663 18.2261C36.603 17.3911 35.888 16.7261 34.988 16.6711C34.9297 16.6678 34.8614 16.6678 34.7214 16.6678Z" stroke="#00FF39" stroke-width="2.48741"/>
<path d="M34.9413 16.6672C34.8113 13.5472 34.3946 11.6339 33.0463 10.2872C31.0947 8.33391 27.9514 8.33391 21.6664 8.33391H16.6664C10.3815 8.33391 7.23815 8.33391 5.28649 10.2872C3.33484 12.2405 3.33317 15.3822 3.33317 21.6672C3.33317 27.9521 3.33317 31.0954 5.28649 33.0471C7.23981 34.9987 10.3815 35.0004 16.6664 35.0004H21.6664C27.9514 35.0004 31.0947 35.0004 33.0463 33.0471C34.3946 31.7004 34.813 29.7871 34.9413 26.6671" stroke="#00FF39" stroke-width="2.48741"/>
<path opacity="0.5" d="M9.99951 8.33403L16.2245 4.20572C17.1001 3.6369 18.1219 3.33415 19.1661 3.33415C20.2103 3.33415 21.2321 3.6369 22.1078 4.20572L28.3327 8.33403" stroke="#00FF39" stroke-width="2.48741" stroke-linecap="round"/>
<path opacity="0.5" d="M29.9848 21.6666H29.9997" stroke="#00FF39" stroke-width="3.31655" stroke-linecap="round" stroke-linejoin="round"/>
</svg>
