<svg width="44" height="44" viewBox="0 0 44 44" fill="none" xmlns="http://www.w3.org/2000/svg">
<path d="M12.8328 25.6667L17.0367 21.4628C17.3805 21.1191 17.8467 20.926 18.3329 20.926C18.819 20.926 19.2852 21.1191 19.629 21.4628L22.5367 24.3705C22.8805 24.7142 23.3467 24.9073 23.8329 24.9073C24.319 24.9073 24.7852 24.7142 25.129 24.3705L31.1662 18.3333M31.1662 18.3333V22.9167M31.1662 18.3333H26.5829" stroke="#3479FF" stroke-width="2.73707" stroke-linecap="round" stroke-linejoin="round"/>
<path d="M40.3334 21.9999C40.3334 13.3576 40.3334 9.03641 37.6476 6.3524C34.9654 3.66656 30.6424 3.66656 22.0001 3.66656C13.3577 3.66656 9.03652 3.66656 6.35067 6.3524C3.66667 9.03457 3.66667 13.3576 3.66667 21.9999C3.66667 30.6423 3.66667 34.9635 6.35067 37.6493C9.03835 40.3333 13.3577 40.3333 22.0001 40.3333C30.6424 40.3333 34.9636 40.3333 37.6476 37.6493C39.4333 35.8637 40.0309 33.3538 40.2326 29.3333" stroke="#3479FF" stroke-width="2.73707" stroke-linecap="round"/>
</svg>
