<svg width="16" height="16" viewBox="0 0 16 16" fill="none" xmlns="http://www.w3.org/2000/svg">
<path d="M5.60017 9.99888H3.7335C3.4506 9.99888 3.17929 10.1113 2.97925 10.3113C2.77921 10.5113 2.66683 10.7826 2.66683 11.0655V12.9322C2.66683 13.2151 2.77921 13.4864 2.97925 13.6865C3.17929 13.8865 3.4506 13.9989 3.7335 13.9989H5.60017C5.88306 13.9989 6.15437 13.8865 6.35441 13.6865C6.55445 13.4864 6.66683 13.2151 6.66683 12.9322V11.0655C6.66683 10.7826 6.55445 10.5113 6.35441 10.3113C6.15437 10.1113 5.88306 9.99888 5.60017 9.99888ZM12.2668 1.99888H10.4002C10.1173 1.99888 9.84596 2.11126 9.64592 2.3113C9.44588 2.51134 9.3335 2.78265 9.3335 3.06554V4.93221C9.3335 5.21511 9.44588 5.48642 9.64592 5.68646C9.84596 5.8865 10.1173 5.99888 10.4002 5.99888H12.2668C12.5497 5.99888 12.821 5.8865 13.0211 5.68646C13.2211 5.48642 13.3335 5.21511 13.3335 4.93221V3.06554C13.3335 2.78265 13.2211 2.51134 13.0211 2.3113C12.821 2.11126 12.5497 1.99888 12.2668 1.99888Z" fill="#D6D4D4" fill-opacity="0.16"/>
<path d="M5.60017 1.99888H3.7335C3.4506 1.99888 3.17929 2.11126 2.97925 2.3113C2.77921 2.51134 2.66683 2.78265 2.66683 3.06555V6.26554C2.66683 6.40562 2.69442 6.54433 2.74803 6.67374C2.80163 6.80315 2.8802 6.92074 2.97925 7.01979C3.0783 7.11884 3.19589 7.19741 3.3253 7.25102C3.45472 7.30462 3.59342 7.33221 3.7335 7.33221H5.60017C5.74024 7.33221 5.87895 7.30462 6.00836 7.25102C6.13778 7.19741 6.25536 7.11884 6.35441 7.01979C6.45346 6.92074 6.53203 6.80315 6.58564 6.67374C6.63924 6.54433 6.66683 6.40562 6.66683 6.26554V3.06555C6.66683 2.78265 6.55445 2.51134 6.35441 2.3113C6.15437 2.11126 5.88306 1.99888 5.60017 1.99888ZM5.60017 9.99888H3.7335C3.4506 9.99888 3.17929 10.1113 2.97925 10.3113C2.77921 10.5113 2.66683 10.7826 2.66683 11.0655V12.9322C2.66683 13.2151 2.77921 13.4864 2.97925 13.6865C3.17929 13.8865 3.4506 13.9989 3.7335 13.9989H5.60017C5.88306 13.9989 6.15437 13.8865 6.35441 13.6865C6.55445 13.4864 6.66683 13.2151 6.66683 12.9322V11.0655C6.66683 10.7826 6.55445 10.5113 6.35441 10.3113C6.15437 10.1113 5.88306 9.99888 5.60017 9.99888ZM12.2668 1.99888H10.4002C10.1173 1.99888 9.84596 2.11126 9.64592 2.3113C9.44588 2.51134 9.3335 2.78265 9.3335 3.06555V4.93221C9.3335 5.21511 9.44588 5.48642 9.64592 5.68646C9.84596 5.8865 10.1173 5.99888 10.4002 5.99888H12.2668C12.5497 5.99888 12.821 5.8865 13.0211 5.68646C13.2211 5.48642 13.3335 5.21511 13.3335 4.93221V3.06555C13.3335 2.78265 13.2211 2.51134 13.0211 2.3113C12.821 2.11126 12.5497 1.99888 12.2668 1.99888ZM12.2668 8.66554H10.4002C10.1173 8.66554 9.84596 8.77793 9.64592 8.97796C9.44588 9.178 9.3335 9.44931 9.3335 9.73221V12.9322C9.3335 13.2151 9.44588 13.4864 9.64592 13.6865C9.84596 13.8865 10.1173 13.9989 10.4002 13.9989H12.2668C12.5497 13.9989 12.821 13.8865 13.0211 13.6865C13.2211 13.4864 13.3335 13.2151 13.3335 12.9322V9.73221C13.3335 9.44931 13.2211 9.178 13.0211 8.97796C12.821 8.77793 12.5497 8.66554 12.2668 8.66554Z" stroke="white" stroke-width="0.979553" stroke-miterlimit="10" stroke-linejoin="round"/>
</svg>
