<svg width="44" height="44" viewBox="0 0 44 44" fill="none" xmlns="http://www.w3.org/2000/svg">
<path d="M39.4168 20.2192C40.0108 21.6382 40.3334 23.1617 40.3334 24.7494C40.3334 28.5243 38.5093 31.9434 35.5539 34.4276C35.3324 34.6085 35.1532 34.8357 35.0287 35.0931C34.9043 35.3506 34.8376 35.6322 34.8334 35.9181V40.3328H31.1667L29.7111 38.2556C29.5985 38.1003 29.4417 37.9826 29.2611 37.9179C29.0806 37.8531 28.8847 37.8443 28.6991 37.8926C25.5068 38.71 22.16 38.71 18.9677 37.8926C18.7821 37.8443 18.5862 37.8531 18.4057 37.9179C18.2251 37.9826 18.0683 38.1003 17.9557 38.2556L16.5 40.3328H12.8334V35.9621C12.8336 35.665 12.7617 35.3722 12.6237 35.1091C12.4858 34.8459 12.2859 34.6202 12.0414 34.4514C10.0705 33.0948 3.66667 30.4364 3.66667 27.6058V24.7494C3.66667 23.6641 4.488 22.7859 5.50001 22.7859C6.61284 22.7859 7.52034 22.3532 7.88701 21.2037C9.29318 16.8001 13.2569 13.2654 18.3719 11.7712" stroke="#FFB800" stroke-width="1.64224" stroke-linecap="round" stroke-linejoin="round"/>
<path d="M13.7502 21.999H13.7664" stroke="#FFB800" stroke-width="1.64224" stroke-linecap="round" stroke-linejoin="round"/>
<g clip-path="url(#clip0_1_3746)">
<rect x="24.1998" y="4.39961" width="13.6346" height="13.6346" rx="6.7852" fill="#FFB800" fill-opacity="0.04"/>
<circle cx="31.1024" cy="11.1413" r="5.8186" stroke="#FFB800" stroke-width="2.18966"/>
</g>
<defs>
<clipPath id="clip0_1_3746">
<rect x="24.1998" y="4.39961" width="13.6346" height="13.6346" rx="6.7852" fill="white"/>
</clipPath>
</defs>
</svg>
