<svg width="18" height="18" viewBox="0 0 18 18" fill="none" xmlns="http://www.w3.org/2000/svg">
<g clip-path="url(#clip0_1_3703)">
<path d="M6.375 7.71387H11.6259M6.375 9.77615H11.6259M8.625 7.71387C9.12514 7.83858 10.1254 8.27701 10.1254 9.58844C10.1254 11.8384 7.12457 11.8384 7.12457 11.8384C7.12457 11.8384 8.625 13.1512 10.875 13.7143" stroke="#949494" stroke-width="1.28571" stroke-linecap="round" stroke-linejoin="round"/>
<path d="M9.00042 17.3569C13.5004 17.3569 16.7147 15.7651 16.7147 12.2217C16.7147 8.37101 14.7861 5.80344 10.929 3.87744L12.4461 1.92572C12.5234 1.7977 12.5654 1.65148 12.5677 1.50197C12.5701 1.35246 12.5328 1.20498 12.4596 1.07458C12.3864 0.944173 12.28 0.835491 12.1512 0.759605C12.0223 0.683718 11.8757 0.643338 11.7261 0.642578H6.2747C6.12549 0.644129 5.97932 0.685002 5.85094 0.761072C5.72257 0.837142 5.61652 0.945721 5.5435 1.07586C5.47047 1.20599 5.43306 1.35308 5.43503 1.50229C5.437 1.6515 5.47828 1.79756 5.5547 1.92572L7.07185 3.89029C3.2147 5.82915 1.28613 8.39672 1.28613 12.2474C1.28613 15.7651 4.50042 17.3569 9.00042 17.3569Z" stroke="#949494" stroke-width="1.28571" stroke-linecap="round" stroke-linejoin="round"/>
</g>
<defs>
<clipPath id="clip0_1_3703">
<rect width="18" height="18" fill="white"/>
</clipPath>
</defs>
</svg>
