<svg width="41" height="41" viewBox="0 0 41 41" fill="none" xmlns="http://www.w3.org/2000/svg">
<path d="M5.12488 17.483L6.401 17.3736C6.37159 17.0455 6.2169 16.7413 5.96907 16.5242C5.72123 16.3071 5.3993 16.1939 5.07014 16.2079C4.74098 16.222 4.42989 16.3623 4.20148 16.5998C3.97308 16.8372 3.84492 17.1535 3.84363 17.483H5.12488ZM34.5697 20.5973L33.3636 27.5673L35.8903 28.0046L37.0946 21.0346L34.5697 20.5973ZM22.6268 36.302H14.6847V38.8645H22.6268V36.302ZM13.1284 34.8721L11.7413 18.8257L9.18729 19.0461L10.5762 35.0925L13.1284 34.8721ZM33.3636 27.5673C32.4975 32.5727 27.9841 36.302 22.6268 36.302V38.8645C29.1628 38.8645 34.8003 34.3049 35.8903 28.0046L33.3636 27.5673ZM22.6438 8.7124L21.5112 15.6226L24.0395 16.036L25.1722 9.12752L22.6438 8.7124ZM12.2794 17.5035L14.7377 15.3851L13.0635 13.4445L10.6086 15.5628L12.2794 17.5035ZM19.2084 8.49373L20.0215 5.36065L17.541 4.71831L16.7279 7.84969L19.2084 8.49373ZM21.2481 4.74565L21.4958 4.82594L22.28 2.38644L22.0323 2.30615L21.2481 4.74565ZM17.9767 11.6439C18.51 10.6461 18.9234 9.58867 19.2084 8.49373L16.7279 7.84969C16.4925 8.74877 16.1531 9.61734 15.7165 10.4378L17.9767 11.6439ZM21.4958 4.82594C21.7392 4.90052 21.96 5.03501 22.1379 5.21709C22.3158 5.39916 22.4451 5.62298 22.514 5.86802L24.9945 5.22569C24.8187 4.56166 24.4775 3.95299 24.0029 3.45649C23.5282 2.96 22.9354 2.59186 22.28 2.38644L21.4958 4.82594ZM20.0215 5.36065C20.0561 5.23784 20.1167 5.12393 20.1993 5.02665C20.2818 4.92937 20.3843 4.85101 20.4999 4.7969L19.3878 2.48894C18.4789 2.92627 17.7956 3.73602 17.541 4.71831L20.0215 5.36065ZM20.4999 4.7969C20.7339 4.6859 21.0012 4.66759 21.2481 4.74565L22.0323 2.30615C21.1597 2.02723 20.2136 2.09263 19.3878 2.48894L20.4999 4.7969ZM24.1796 18.7642H33.0288V16.2017H24.1796V18.7642ZM8.0615 36.5685L6.401 17.3736L3.84875 17.594L5.50583 36.7889L8.0615 36.5685ZM6.40613 36.7513V17.483H3.84363V36.7513H6.40613ZM5.50583 36.7889C5.50062 36.7268 5.51009 36.6643 5.53032 36.6054C5.55055 36.5464 5.58282 36.4924 5.62507 36.4466C5.66733 36.4008 5.71864 36.3643 5.77575 36.3394C5.83287 36.3145 5.89453 36.3018 5.95683 36.302V38.8645C7.19708 38.8645 8.16742 37.8019 8.0615 36.5685L5.50583 36.7889ZM25.1722 9.12752C25.3869 7.82883 25.3264 6.4995 24.9945 5.22569L22.514 5.86973C22.7563 6.79768 22.8005 7.76623 22.6438 8.7124L25.1722 9.12752ZM14.6847 36.302C14.2935 36.3013 13.9168 36.1541 13.6287 35.8895C13.3406 35.6248 13.1622 35.2618 13.1284 34.8721L10.5762 35.0925C10.6651 36.1212 11.1363 37.0792 11.8969 37.7775C12.6575 38.4758 13.6522 38.8636 14.6847 38.8645V36.302ZM14.7377 15.3851C15.8993 14.3841 17.1498 13.1934 17.9784 11.6439L15.7165 10.4378C15.1255 11.5465 14.1842 12.481 13.0635 13.4445L14.7377 15.3851ZM37.0946 21.0346C37.1975 20.4418 37.1695 19.8337 37.0126 19.2528C36.8557 18.672 36.5737 18.1324 36.1864 17.672C35.799 17.2116 35.3157 16.8414 34.7703 16.5875C34.2248 16.3335 33.6305 16.2018 33.0288 16.2017V18.7642C33.9974 18.7642 34.7371 19.6389 34.5697 20.5973L37.0946 21.0346ZM5.95683 36.302C6.20625 36.302 6.40613 36.5036 6.40613 36.7513H3.84363C3.84363 37.9164 4.78833 38.8645 5.95683 38.8645V36.302ZM21.5112 15.6226C21.4475 16.0097 21.4688 16.406 21.5736 16.784C21.6784 17.162 21.8641 17.5127 22.118 17.8118C22.3719 18.1108 22.6878 18.3511 23.0438 18.5158C23.3998 18.6806 23.7873 18.7642 24.1796 18.7642V16.2017C24.1588 16.2018 24.1382 16.199 24.1193 16.1902C24.1004 16.1815 24.0836 16.1686 24.0703 16.1526C24.0569 16.1367 24.0472 16.1179 24.0419 16.0978C24.0366 16.0776 24.0358 16.0565 24.0395 16.036L21.5112 15.6226ZM11.7413 18.8257C11.7204 18.5784 11.7568 18.3296 11.8506 18.0997C11.9444 17.8699 12.0914 17.6656 12.2794 17.5035L10.6052 15.5611C10.11 15.9884 9.72332 16.5271 9.47683 17.133C9.23034 17.7388 9.13111 18.3945 9.18729 19.0461L11.7413 18.8257Z" fill="#FF00C7"/>
</svg>
