<svg width="18" height="18" viewBox="0 0 18 18" fill="none" xmlns="http://www.w3.org/2000/svg">
<path d="M2.4375 3.75C2.4375 3.20299 2.6548 2.67839 3.04159 2.29159C3.42839 1.9048 3.95299 1.6875 4.5 1.6875H12C12.547 1.6875 13.0716 1.9048 13.4584 2.29159C13.8452 2.67839 14.0625 3.20299 14.0625 3.75V7.875C14.0625 8.02418 14.0032 8.16726 13.8977 8.27275C13.7923 8.37824 13.6492 8.4375 13.5 8.4375C13.3508 8.4375 13.2077 8.37824 13.1023 8.27275C12.9968 8.16726 12.9375 8.02418 12.9375 7.875V3.75C12.9375 3.2325 12.5175 2.8125 12 2.8125H4.5C3.9825 2.8125 3.5625 3.2325 3.5625 3.75V14.5365C3.56244 14.5685 3.57057 14.6 3.58612 14.628C3.60167 14.6559 3.62412 14.6795 3.65134 14.6963C3.67856 14.7132 3.70963 14.7227 3.7416 14.7242C3.77358 14.7256 3.80539 14.7188 3.834 14.7045L4.584 14.3295C4.80194 14.2206 5.0459 14.1744 5.28857 14.1963C5.53124 14.2181 5.76303 14.3071 5.958 14.4532L6.6375 14.9625C6.66996 14.9868 6.70943 15 6.75 15C6.79057 15 6.83004 14.9868 6.8625 14.9625L7.509 14.4772C7.71773 14.3208 7.96833 14.2302 8.22882 14.2168C8.4893 14.2035 8.74786 14.268 8.9715 14.4022L9.477 14.7052C9.54111 14.7429 9.59713 14.7928 9.64181 14.8522C9.68649 14.9117 9.71896 14.9793 9.73732 15.0514C9.75569 15.1234 9.7596 15.1984 9.74883 15.2719C9.73805 15.3455 9.7128 15.4161 9.67454 15.4799C9.63628 15.5436 9.58577 15.5991 9.52592 15.6432C9.46607 15.6873 9.39808 15.7191 9.32587 15.7368C9.25366 15.7544 9.17867 15.7576 9.10523 15.7461C9.03179 15.7346 8.96135 15.7086 8.898 15.6698L8.39325 15.3668C8.36129 15.3475 8.3243 15.3382 8.28702 15.34C8.24974 15.3419 8.21387 15.3549 8.184 15.3773L7.5375 15.8625C7.31031 16.0329 7.03399 16.125 6.75 16.125C6.46601 16.125 6.18969 16.0329 5.9625 15.8625L5.283 15.3525C5.25516 15.3318 5.22212 15.3192 5.18757 15.3162C5.15301 15.3131 5.11828 15.3197 5.08725 15.3353L4.33725 15.7103C4.13715 15.8104 3.91478 15.8577 3.69125 15.8476C3.46773 15.8376 3.25048 15.7706 3.06013 15.653C2.86978 15.5354 2.71266 15.3711 2.60369 15.1757C2.49471 14.9803 2.43751 14.7602 2.4375 14.5365V3.75Z" fill="#949494"/>
<path d="M13.125 11.0625C12.578 11.0625 12.0534 11.2798 11.6666 11.6666C11.2798 12.0534 11.0625 12.578 11.0625 13.125C11.0625 13.672 11.2798 14.1966 11.6666 14.5834C12.0534 14.9702 12.578 15.1875 13.125 15.1875C13.672 15.1875 14.1966 14.9702 14.5834 14.5834C14.9702 14.1966 15.1875 13.672 15.1875 13.125C15.1875 12.578 14.9702 12.0534 14.5834 11.6666C14.1966 11.2798 13.672 11.0625 13.125 11.0625ZM9.9375 13.125C9.9375 12.7064 10.0199 12.2919 10.1801 11.9052C10.3403 11.5185 10.5751 11.1671 10.8711 10.8711C11.1671 10.5751 11.5185 10.3403 11.9052 10.1801C12.2919 10.0199 12.7064 9.9375 13.125 9.9375C13.5436 9.9375 13.9581 10.0199 14.3448 10.1801C14.7315 10.3403 15.0829 10.5751 15.3789 10.8711C15.6749 11.1671 15.9097 11.5185 16.0699 11.9052C16.2301 12.2919 16.3125 12.7064 16.3125 13.125C16.3125 13.9704 15.9767 14.7811 15.3789 15.3789C14.7811 15.9767 13.9704 16.3125 13.125 16.3125C12.2796 16.3125 11.4689 15.9767 10.8711 15.3789C10.2733 14.7811 9.9375 13.9704 9.9375 13.125ZM14.5072 12.0712C14.6126 12.1767 14.6718 12.3197 14.6718 12.4688C14.6718 12.6178 14.6126 12.7608 14.5072 12.8663L12.7972 14.5763L11.7427 13.5225C11.6875 13.471 11.6432 13.4089 11.6124 13.3399C11.5817 13.2709 11.5651 13.1964 11.5638 13.1209C11.5625 13.0454 11.5764 12.9703 11.6047 12.9003C11.6329 12.8303 11.6751 12.7666 11.7285 12.7132C11.7819 12.6598 11.8455 12.6177 11.9156 12.5894C11.9856 12.5611 12.0606 12.5472 12.1361 12.5486C12.2117 12.5499 12.2862 12.5664 12.3552 12.5972C12.4242 12.6279 12.4863 12.6722 12.5377 12.7275L12.7972 12.9855L13.7123 12.0705C13.8177 11.9652 13.9607 11.906 14.1097 11.906C14.2588 11.906 14.4018 11.9659 14.5072 12.0712ZM4.6875 5.25C4.6875 5.10082 4.74676 4.95774 4.85225 4.85225C4.95774 4.74676 5.10082 4.6875 5.25 4.6875H10.125C10.2742 4.6875 10.4173 4.74676 10.5227 4.85225C10.6282 4.95774 10.6875 5.10082 10.6875 5.25C10.6875 5.39918 10.6282 5.54226 10.5227 5.64775C10.4173 5.75324 10.2742 5.8125 10.125 5.8125H5.25C5.10082 5.8125 4.95774 5.75324 4.85225 5.64775C4.74676 5.54226 4.6875 5.39918 4.6875 5.25ZM4.6875 7.5C4.6875 7.35082 4.74676 7.20774 4.85225 7.10225C4.95774 6.99676 5.10082 6.9375 5.25 6.9375H11.25C11.3992 6.9375 11.5423 6.99676 11.6477 7.10225C11.7532 7.20774 11.8125 7.35082 11.8125 7.5C11.8125 7.64918 11.7532 7.79226 11.6477 7.89775C11.5423 8.00324 11.3992 8.0625 11.25 8.0625H5.25C5.10082 8.0625 4.95774 8.00324 4.85225 7.89775C4.74676 7.79226 4.6875 7.64918 4.6875 7.5ZM4.6875 9.75C4.6875 9.60082 4.74676 9.45774 4.85225 9.35225C4.95774 9.24676 5.10082 9.1875 5.25 9.1875H7.875C8.02418 9.1875 8.16726 9.24676 8.27275 9.35225C8.37824 9.45774 8.4375 9.60082 8.4375 9.75C8.4375 9.89918 8.37824 10.0423 8.27275 10.1477C8.16726 10.2532 8.02418 10.3125 7.875 10.3125H5.25C5.10082 10.3125 4.95774 10.2532 4.85225 10.1477C4.74676 10.0423 4.6875 9.89918 4.6875 9.75ZM4.6875 12C4.6875 11.8508 4.74676 11.7077 4.85225 11.6023C4.95774 11.4968 5.10082 11.4375 5.25 11.4375H7.875C8.02418 11.4375 8.16726 11.4968 8.27275 11.6023C8.37824 11.7077 8.4375 11.8508 8.4375 12C8.4375 12.1492 8.37824 12.2923 8.27275 12.3977C8.16726 12.5032 8.02418 12.5625 7.875 12.5625H5.25C5.10082 12.5625 4.95774 12.5032 4.85225 12.3977C4.74676 12.2923 4.6875 12.1492 4.6875 12Z" fill="#949494"/>
</svg>
