<svg width="18" height="18" viewBox="0 0 18 18" fill="none" xmlns="http://www.w3.org/2000/svg">
<path d="M14.0625 2.8125H3.9375C3.34076 2.8125 2.76847 3.04955 2.34651 3.47151C1.92455 3.89347 1.6875 4.46576 1.6875 5.0625V10.6875C1.6875 11.2842 1.92455 11.8565 2.34651 12.2785C2.76847 12.7004 3.34076 12.9375 3.9375 12.9375H10.125L13.5 15.1875V12.9375H14.0625C14.6592 12.9375 15.2315 12.7004 15.6535 12.2785C16.0754 11.8565 16.3125 11.2842 16.3125 10.6875V5.0625C16.3125 4.46576 16.0754 3.89347 15.6535 3.47151C15.2315 3.04955 14.6592 2.8125 14.0625 2.8125Z" stroke="#949494" stroke-width="1.125" stroke-linecap="round" stroke-linejoin="round"/>
<path d="M5.625 8.4375C5.625 8.58668 5.56574 8.72976 5.46025 8.83525C5.35476 8.94074 5.21168 9 5.0625 9C4.91332 9 4.77024 8.94074 4.66475 8.83525C4.55926 8.72976 4.5 8.58668 4.5 8.4375C4.5 8.28832 4.55926 8.14524 4.66475 8.03975C4.77024 7.93426 4.91332 7.875 5.0625 7.875C5.21168 7.875 5.35476 7.93426 5.46025 8.03975C5.56574 8.14524 5.625 8.28832 5.625 8.4375ZM9 8.4375C9 8.58668 8.94074 8.72976 8.83525 8.83525C8.72976 8.94074 8.58668 9 8.4375 9C8.28832 9 8.14524 8.94074 8.03975 8.83525C7.93426 8.72976 7.875 8.58668 7.875 8.4375C7.875 8.28832 7.93426 8.14524 8.03975 8.03975C8.14524 7.93426 8.28832 7.875 8.4375 7.875C8.58668 7.875 8.72976 7.93426 8.83525 8.03975C8.94074 8.14524 9 8.28832 9 8.4375ZM12.375 8.4375C12.375 8.58668 12.3157 8.72976 12.2102 8.83525C12.1048 8.94074 11.9617 9 11.8125 9C11.6633 9 11.5202 8.94074 11.4148 8.83525C11.3093 8.72976 11.25 8.58668 11.25 8.4375C11.25 8.28832 11.3093 8.14524 11.4148 8.03975C11.5202 7.93426 11.6633 7.875 11.8125 7.875C11.9617 7.875 12.1048 7.93426 12.2102 8.03975C12.3157 8.14524 12.375 8.28832 12.375 8.4375Z" stroke="#949494" stroke-width="1.125" stroke-linecap="round" stroke-linejoin="round"/>
</svg>
