<svg width="16" height="16" viewBox="0 0 16 16" fill="none" xmlns="http://www.w3.org/2000/svg">
<path d="M6.74341 14.5409C7.14741 14.8742 7.56875 15.1789 8.00009 15.4762C8.43237 15.1828 8.85166 14.8708 9.25678 14.5409C9.93213 13.9864 10.5677 13.3851 11.1588 12.7415C12.5215 11.2515 14.0002 9.09147 14.0002 6.66676C14.0002 5.87882 13.845 5.09859 13.5435 4.37062C13.2419 3.64266 12.8 2.98121 12.2428 2.42405C11.6856 1.86689 11.0242 1.42493 10.2962 1.1234C9.56827 0.821864 8.78804 0.666667 8.00009 0.666667C7.21215 0.666667 6.43192 0.821864 5.70396 1.1234C4.97599 1.42493 4.31455 1.86689 3.75739 2.42405C3.20023 2.98121 2.75826 3.64266 2.45673 4.37062C2.1552 5.09859 2 5.87882 2 6.66676C2 9.09147 3.47869 11.2508 4.84138 12.7415C5.43247 13.3853 6.06804 13.9861 6.74341 14.5409ZM8.00009 8.83346C7.42545 8.83346 6.87434 8.60519 6.46801 8.19885C6.06167 7.79251 5.83339 7.24141 5.83339 6.66676C5.83339 6.09212 6.06167 5.54101 6.46801 5.13467C6.87434 4.72834 7.42545 4.50006 8.00009 4.50006C8.57474 4.50006 9.12585 4.72834 9.53218 5.13467C9.93852 5.54101 10.1668 6.09212 10.1668 6.66676C10.1668 7.24141 9.93852 7.79251 9.53218 8.19885C9.12585 8.60519 8.57474 8.83346 8.00009 8.83346Z" fill="white"/>
</svg>
