<svg width="18" height="18" viewBox="0 0 18 18" fill="none" xmlns="http://www.w3.org/2000/svg">
<g clip-path="url(#clip0_1_3722)">
<path d="M5.39961 2.6998H12.5996C12.8383 2.6998 13.0672 2.79463 13.236 2.96341C13.4048 3.13219 13.4996 3.36111 13.4996 3.5998V8.1196C13.8092 8.1478 14.1092 8.2033 14.3996 8.2861V3.5998C14.3996 3.12241 14.21 2.66458 13.8724 2.32701C13.5348 1.98945 13.077 1.7998 12.5996 1.7998H5.39961C4.92222 1.7998 4.46438 1.98945 4.12682 2.32701C3.78925 2.66458 3.59961 3.12241 3.59961 3.5998V14.3998C3.59961 14.8772 3.78925 15.335 4.12682 15.6726C4.46438 16.0102 4.92222 16.1998 5.39961 16.1998H9.23091C9.00167 15.9222 8.80339 15.6204 8.63961 15.2998H5.39961C5.16091 15.2998 4.932 15.205 4.76321 15.0362C4.59443 14.8674 4.49961 14.6385 4.49961 14.3998H8.28591C8.20273 14.1056 8.147 13.8043 8.11941 13.4998H4.49961V3.5998C4.49961 3.36111 4.59443 3.13219 4.76321 2.96341C4.932 2.79463 5.16091 2.6998 5.39961 2.6998ZM6.29961 3.5998C6.06091 3.5998 5.832 3.69463 5.66321 3.86341C5.49443 4.03219 5.39961 4.26111 5.39961 4.4998V5.3998C5.39961 5.6385 5.49443 5.86742 5.66321 6.0362C5.832 6.20498 6.06091 6.2998 6.29961 6.2998H11.6996C11.9383 6.2998 12.1672 6.20498 12.336 6.0362C12.5048 5.86742 12.5996 5.6385 12.5996 5.3998V4.4998C12.5996 4.26111 12.5048 4.03219 12.336 3.86341C12.1672 3.69463 11.9383 3.5998 11.6996 3.5998H6.29961ZM11.6996 4.4998V5.3998H6.29961V4.4998H11.6996ZM17.0996 13.0498C17.0996 14.1239 16.6729 15.1541 15.9134 15.9136C15.1539 16.6731 14.1237 17.0998 13.0496 17.0998C11.9755 17.0998 10.9453 16.6731 10.1858 15.9136C9.4263 15.1541 8.99961 14.1239 8.99961 13.0498C8.99961 11.9757 9.4263 10.9455 10.1858 10.186C10.9453 9.4265 11.9755 8.9998 13.0496 8.9998C14.1237 8.9998 15.1539 9.4265 15.9134 10.186C16.6729 10.9455 17.0996 11.9757 17.0996 13.0498ZM12.6176 11.2804C12.5593 11.2402 12.4915 11.2159 12.4209 11.2101C12.3503 11.2042 12.2794 11.217 12.2153 11.2471C12.1631 11.2703 12.1157 11.3033 12.0758 11.3443C12.0339 11.3866 12.0008 11.4367 11.9784 11.4919C11.956 11.547 11.9447 11.6061 11.9453 11.6656V14.4331C11.9446 14.4928 11.9558 14.552 11.9782 14.6073C12.0006 14.6626 12.0338 14.7129 12.0758 14.7553C12.1173 14.7957 12.165 14.8291 12.2171 14.8543C12.3084 14.8961 12.412 14.9026 12.5078 14.8723C12.5494 14.8589 12.5888 14.8395 12.6248 14.8147L14.6912 13.4044C14.7541 13.3629 14.8047 13.3055 14.8379 13.2379C14.8718 13.1697 14.8892 13.0946 14.8888 13.0184C14.8883 12.9423 14.87 12.8673 14.8352 12.7996C14.7996 12.7333 14.7479 12.677 14.6849 12.6358L12.6176 11.2804Z" fill="#949494"/>
</g>
<defs>
<clipPath id="clip0_1_3722">
<rect width="18" height="18" fill="white"/>
</clipPath>
</defs>
</svg>
