<svg width="34" height="33" viewBox="0 0 34 33" fill="none" xmlns="http://www.w3.org/2000/svg">
<rect width="33.9998" height="32.3808" rx="3.91392" fill="#232323" fill-opacity="0.83"/>
<path d="M12.9521 12.1431H12.1426C11.7132 12.1431 11.3014 12.3137 10.9977 12.6173C10.6941 12.921 10.5235 13.3328 10.5235 13.7622V21.0479C10.5235 21.4772 10.6941 21.8891 10.9977 22.1927C11.3014 22.4963 11.7132 22.6669 12.1426 22.6669H19.4282C19.8576 22.6669 20.2694 22.4963 20.5731 22.1927C20.8767 21.8891 21.0473 21.4772 21.0473 21.0479V20.2383" stroke="white" stroke-width="1.60881" stroke-linecap="round" stroke-linejoin="round"/>
<path d="M20.2382 10.524L22.6668 12.9526M23.7879 11.8071C24.1068 11.4883 24.2859 11.0559 24.2859 10.605C24.2859 10.1541 24.1068 9.72167 23.7879 9.40284C23.4691 9.08402 23.0367 8.9049 22.5858 8.9049C22.1349 8.9049 21.7025 9.08402 21.3837 9.40284L14.5716 16.1907V18.6192H17.0001L23.7879 11.8071Z" stroke="white" stroke-width="1.60881" stroke-linecap="round" stroke-linejoin="round"/>
</svg>
